<svg width="380" height="780" viewBox="0 0 380 780" xmlns="http://www.w3.org/2000/svg">
  <defs>
    <linearGradient id="frameGradient" x1="0%" y1="0%" x2="100%" y2="100%">
      <stop offset="0%" stop-color="#1B1B33"/>
      <stop offset="100%" stop-color="#070818"/>
    </linearGradient>
    <linearGradient id="accentLine" x1="0%" y1="0%" x2="100%" y2="0%">
      <stop offset="0%" stop-color="#52E4FF"/>
      <stop offset="50%" stop-color="#8F7BFF"/>
      <stop offset="100%" stop-color="#FF70D8"/>
    </linearGradient>
  </defs>
  <rect x="6" y="6" width="368" height="768" rx="46" fill="url(#frameGradient)" stroke="#2C2C52" stroke-width="2"/>
  <rect x="40" y="60" width="300" height="40" rx="18" fill="rgba(255,255,255,0.08)"/>
  <rect x="50" y="118" width="280" height="220" rx="28" fill="#0F1128" stroke="rgba(255,255,255,0.08)"/>
  <polyline points="70,300 110,240 150,260 190,190 230,230 270,160 310,210" fill="none" stroke="url(#accentLine)" stroke-width="6" stroke-linecap="round" stroke-linejoin="round">
    <animate attributeName="stroke-dashoffset" from="200" to="0" dur="4s" repeatCount="indefinite"/>
    <animate attributeName="stroke-dasharray" values="0,600;400,200" dur="4s" repeatCount="indefinite"/>
  </polyline>
  <rect x="50" y="360" width="280" height="140" rx="24" fill="#111333" stroke="rgba(255,255,255,0.08)"/>
  <g fill="#ffffff" opacity="0.8">
    <rect x="70" y="380" width="90" height="18" rx="9"/>
    <rect x="70" y="410" width="120" height="12" rx="6" opacity="0.7"/>
    <rect x="70" y="434" width="160" height="12" rx="6" opacity="0.4"/>
  </g>
  <rect x="50" y="520" width="280" height="200" rx="32" fill="#0C0F29" stroke="rgba(255,255,255,0.1)"/>
  <rect x="70" y="540" width="240" height="32" rx="16" fill="rgba(255,255,255,0.08)"/>
  <g>
    <circle cx="110" cy="620" r="44" fill="#1B1F48"/>
    <circle cx="110" cy="620" r="32" fill="#1F2458" stroke="url(#accentLine)" stroke-width="3"/>
    <text x="110" y="628" text-anchor="middle" font-family="'Space Grotesk', 'Inter', system-ui" font-size="16" fill="#ffffff">92%</text>
  </g>
  <g>
    <rect x="190" y="600" width="120" height="14" rx="7" fill="#1F2442"/>
    <rect x="190" y="624" width="90" height="14" rx="7" fill="#1F2442" opacity="0.7"/>
    <rect x="190" y="648" width="70" height="14" rx="7" fill="#1F2442" opacity="0.4"/>
  </g>
  <rect x="140" y="20" width="100" height="10" rx="5" fill="#161836"/>
</svg>
