<svg width="520" height="320" viewBox="0 0 520 320" xmlns="http://www.w3.org/2000/svg">
  <defs>
    <linearGradient id="nutritionBg" x1="0%" y1="0%" x2="100%" y2="100%">
      <stop offset="0%" stop-color="#0F0F0F"/>
      <stop offset="100%" stop-color="#000000"/>
    </linearGradient>
    <linearGradient id="progressRing" x1="0%" y1="0%" x2="100%" y2="0%">
      <stop offset="0%" stop-color="#1E40FF"/>
      <stop offset="100%" stop-color="#FFFFFF"/>
    </linearGradient>
  </defs>
  <rect width="520" height="320" rx="36" fill="url(#nutritionBg)" stroke="rgba(255,255,255,0.12)"/>
  <text x="40" y="70" font-family="'Space Grotesk', 'Inter', system-ui" font-size="20" fill="#FFFFFF" font-weight="600">Daily Fuel Plan</text>
  <text x="40" y="104" font-family="'Inter', system-ui" font-size="14" fill="#CCCCCC">2,180 kcal • 180g protein</text>
  <circle cx="140" cy="200" r="70" fill="#0F0F0F" stroke="#1A1A1A" stroke-width="12"/>
  <path d="M140 120 A80 80 0 1 1 139 120" fill="none" stroke="url(#progressRing)" stroke-width="12" stroke-linecap="round">
    <animateTransform attributeName="transform" type="rotate" from="0 140 200" to="360 140 200" dur="14s" repeatCount="indefinite"/>
  </path>
  <text x="140" y="206" font-family="'Space Grotesk', 'Inter', system-ui" font-size="28" fill="#FFFFFF" text-anchor="middle">82%</text>
  <g fill="#ffffff">
    <rect x="260" y="150" width="200" height="18" rx="9" opacity="0.9"/>
    <rect x="260" y="182" width="170" height="14" rx="7" opacity="0.6"/>
    <rect x="260" y="208" width="210" height="14" rx="7" opacity="0.4"/>
  </g>
  <g>
    <rect x="260" y="240" width="90" height="40" rx="20" fill="#0F0F0F" stroke="rgba(255,255,255,0.08)"/>
    <rect x="360" y="240" width="90" height="40" rx="20" fill="#0F0F0F" stroke="rgba(255,255,255,0.08)"/>
    <text x="305" y="266" text-anchor="middle" font-family="'Space Grotesk', 'Inter', system-ui" font-size="14" fill="#ffffff">Log Meal</text>
    <text x="405" y="266" text-anchor="middle" font-family="'Space Grotesk', 'Inter', system-ui" font-size="14" fill="#1E40FF">Voice</text>
  </g>
</svg>
